<?xml version="1.0" encoding="UTF-8"?>
<svg id="Layer_2" data-name="Layer 2" xmlns="http://www.w3.org/2000/svg" viewBox="0 0 133.57 133.57">
  <defs>
    <style>
      .cls-1 {
        fill: #f7f7f7;
      }

      .cls-2 {
        fill: #f9f9f9;
      }

      .cls-3 {
        fill: #f8f8f8;
      }

      .cls-4 {
        fill: #f1f1f1;
      }

      .cls-5 {
        fill: #fefefe;
      }

      .cls-6 {
        fill: #fafafa;
      }

      .cls-7 {
        fill: #fbfbfb;
      }

      .cls-8 {
        fill: #686868;
      }

      .cls-9 {
        fill: #979797;
      }

      .cls-10 {
        fill: #8b8b8b;
      }

      .cls-11 {
        fill: #9c9c9c;
      }

      .cls-12 {
        fill: #9d9d9d;
      }

      .cls-13 {
        fill: #bababa;
      }

      .cls-14 {
        fill: #acacac;
      }

      .cls-15 {
        fill: #bdbdbd;
      }

      .cls-16 {
        fill: #afafaf;
      }

      .cls-17 {
        fill: #171717;
      }

      .cls-18 {
        fill: #404040;
      }

      .cls-19 {
        fill: #090909;
      }

      .cls-20 {
        fill: #1b1b1b;
      }

      .cls-21 {
        fill: #1a1a1a;
      }

      .cls-22 {
        fill: #565656;
      }

      .cls-23 {
        fill: #3d3d3d;
      }

      .cls-24 {
        fill: #2f2f2f;
      }
    </style>
  </defs>
  <g id="Layer_1-2" data-name="Layer 1">
    <g>
      <rect width="133.57" height="133.57" rx="15" ry="15"/>
      <path class="cls-5" d="M67.49,27.45c1.36-1.71,2.71-3.41,4.07-5.12,.43-.54,.93-1.06,1.65-.83,.73,.23,1.14,.83,1.14,1.64,0,.32,0,.64,0,.96,0,22.74,.01,45.48-.03,68.23,0,1.18,.31,1.44,1.44,1.4,2.59-.09,5.19-.03,7.79-.03,.6,0,1.2,.01,1.66,.48,.42,.62,.42,1.25,.02,1.88-.29,.49-.75,.49-1.24,.49-8.36,0-16.72-.02-25.08,.01-.68,0-1.09-.29-1.49-.74-.29-.48-.35-.96,.03-1.42,.53-.69,1.28-.7,2.05-.7,3.67,0,7.35-.01,11.02,.02,.74,0,1.03-.14,1.02-.98-.04-4.75-.04-9.5,0-14.26,0-.78-.22-1.05-.98-1.05-8.79,.01-17.57,.02-26.36,0-1.36,0-1.82,1.13-2.59,1.87-1.47,1.41-2.89,2.86-4.33,4.3-.35,.46-.79,.83-1.19,1.24-2.01,2.09-4.02,4.18-6.04,6.27-1.17,1.21-2.34,2.4-3.52,3.6-.77,.78-1.64,.88-2.22,.26-.65-.69-.58-1.46,.22-2.28,3.47-3.54,6.94-7.08,10.41-10.62,5.33-5.45,10.7-10.87,15.99-16.36,6.13-6.37,12.27-12.73,18.52-18.98,.61-.61,1.04-1.37,1.76-1.89,.21-.15,.32-.43,.32-.74,0-5.54,0-11.08,0-16.89-1.47,1.28-2.32,2.77-3.44,4.02-.7,.79-1.3,1.68-1.98,2.49-.57,.67-1.26,.97-2.07,.36-.78-.59-.68-1.36-.2-2.02,.93-1.25,1.95-2.43,2.94-3.64,.22-.34,.5-.62,.71-.97Z"/>
      <path class="cls-6" d="M108.3,65.09c.15,.09,.29,.18,.44,.27,.69,.62,.93,1.41,.98,2.31,.04,.89-.24,1.34-1.2,1.29-.79-.05-1.58,0-2.37,0-.83,0-1.01,.32-.53,1,.78,.72,1.96,.76,3.25,.1,.32,1.52,.2,1.72-1.3,1.86-1.56,.15-3.17,.27-4.08-1.37-.88-1.58-.77-3.19,.25-4.69,.94-1.38,2.35-1.4,3.8-1.19,.22,.21,.54,.23,.76,.43Z"/>
      <path class="cls-7" d="M86.9,71.87c-.65-.16-1-.63-1.21-1.23-.28-.49-.27-.98,0-1.47,.03-.07,.05-.14,.06-.21,.19-.26,.2-.63,.5-.84,.53-.31,1.08-.56,1.67-.72,.34-.12,.68-.13,1.04-.15,.79-.05,.84-.42,.38-.97h0c-.65-.27-1.3-.14-1.95,.01h0c-.36,.23-.83,.58-1.15,.23-.32-.35-.29-.93,.01-1.39l-.02,.02c.19-.27,.51-.33,.76-.5,.87-.02,1.75-.08,2.62-.06,1.21,.03,1.92,.76,2.14,1.87,.31,1.57,.23,3.19,.11,4.77-.09,1.2-1.5,.69-1.64,.52-.68-.85-1.1,0-1.62,.08-.57,.28-1.14,.32-1.72,.03Z"/>
      <path class="cls-1" d="M82.84,64.65c1.17,.53,1.61,1.5,1.63,2.71,.02,1.2-.06,2.4,.03,3.59,.08,.96-.46,.93-1.09,.9-.6-.03-1.32,.21-1.24-.88,.08-1.11,.03-2.23,0-3.35-.02-.72-.18-1.4-1.11-1.38-.89,.02-1.26,.63-1.3,1.41-.06,1.07-.09,2.16,0,3.23,.07,.95-.41,.98-1.14,1-.8,.02-1.13-.17-1.09-1.05,.07-1.63,.09-3.27,0-4.9-.06-1.06,.26-1.47,1.31-1.28,.27,.05,.56,.03,.84,.04,.46,.85,.87,.18,1.3-.03,.08,.01,.15,0,.21-.04,.56-.24,1.13-.37,1.67,.05Z"/>
      <path class="cls-3" d="M99.83,71.81q-2.12,.13-2.12-1.99c0-1.36-.02-2.72,0-4.08,0-.46-.25-1.16,.65-1.09,.65,.05,1.65-.43,1.49,1.16,.7-.93,1.39-1.47,2.41-1.18,.34,.36,.23,.82,.24,1.25,.01,.53-.22,.76-.78,.79-1.28,.07-1.58,.4-1.6,1.64-.02,.79,0,1.59,0,2.38,0,.39,.09,.81-.28,1.1Z"/>
      <path class="cls-2" d="M95.82,68.34c0,.92-.05,1.84,.02,2.75,.06,.79-.37,.83-.94,.77-.53-.06-1.26,.28-1.24-.76,.04-1.91,.02-3.82,0-5.73,0-1.06,.78-.63,1.28-.7,.51-.07,.93-.04,.89,.69-.05,.99-.01,1.99-.01,2.99Z"/>
      <path class="cls-24" d="M105.61,69.95c-.52-.05-.5-.44-.47-.79,.05-.48,.45-.35,.74-.35,.99-.01,1.98-.03,2.98,0,.51,.01,.67-.17,.7-.68,.05-1.04-.29-1.92-.82-2.77,.92,.57,1.61,2.69,1.18,3.53-.19,.37-.52,.31-.83,.31-.95,.01-1.91,.06-2.85-.01-.67-.05-.71,.27-.63,.76Z"/>
      <path class="cls-19" d="M99.83,71.81c.01-1.24,0-2.47,.03-3.71,.02-.93,.59-1.68,1.43-1.6,1.12,.1,1.01-.46,.98-1.14-.01-.24,0-.48,0-.72,.9,.38,.46,1.16,.44,1.75-.02,.56-.59,.41-.96,.41-1.03,0-1.41,.54-1.39,1.51,.02,.88,0,1.76,0,2.63,0,.39,.09,.85-.52,.87Z"/>
      <path class="cls-4" d="M94.11,61.5c.64-.38,1.19-.23,1.71,.25,.27,.41,.27,.81,0,1.22-.42,.69-1.06,.5-1.67,.4-.58-.61-.79-1.23-.04-1.87Z"/>
      <path class="cls-21" d="M89.34,66.29c.46-.04,.49,.31,.5,.61,0,.36-.31,.41-.57,.46-.46,.08-.92,.12-1.38,.17-.33,.12-.66,.24-.97-.03,.59-.36,1.27-.44,1.91-.45,.66-.02,.55-.37,.5-.75Z"/>
      <path class="cls-21" d="M86.26,65.14c.02,.43,.04,.86,.07,1.3,.38-.05,.73-.1,1.07-.14-.18,.63-.97,.93-1.17,.7-.44-.49-.48-1.25,.04-1.86Z"/>
      <path class="cls-12" d="M94.11,61.5c-.44,.63-.3,1.26,.04,1.87-1.02-.77-1.03-1.24-.04-1.87Z"/>
      <path class="cls-24" d="M82.84,64.65c-.56-.02-1.11-.03-1.67-.05,.57-.58,1.14-.86,1.67,.05Z"/>
      <path class="cls-23" d="M80.95,64.65c-.39,.33-.77,.66-1.16,.99-.19-.25-.12-.61-.14-.96,.44,.34,.86-.14,1.3-.03Z"/>
      <path class="cls-9" d="M85.24,96.05c.12-.63,.07-1.25-.02-1.88,.75,.62,.81,1.24,.02,1.88Z"/>
      <path class="cls-8" d="M86.9,71.87c.57,0,1.15-.02,1.72-.03-.56,.61-1.13,.74-1.72,.03Z"/>
      <path class="cls-14" d="M86.92,67.5c.32,.01,.65,.02,.97,.03-.43,.48-1.09,.47-1.6,.78-.1-.03-.14-.07-.12-.13,.02-.06,.05-.09,.08-.09,.22-.2,.45-.4,.67-.59Z"/>
      <path class="cls-18" d="M85.69,69.18c0,.49,0,.98,0,1.47-.69-.49-.66-.97,0-1.47Z"/>
      <path class="cls-22" d="M95.82,62.97c0-.41,0-.81,0-1.22,.71,.4,.76,.81,0,1.22Z"/>
      <path class="cls-20" d="M57.47,94.39c-.01,.47-.02,.95-.03,1.42-.69-.49-.74-.97,.03-1.42Z"/>
      <path class="cls-21" d="M87.39,66.3c.65-.31,1.3-.67,1.95,0-.65,0-1.3,0-1.95,0Z"/>
      <path class="cls-13" d="M36.11,84.83c.22-.59,.68-.93,1.19-1.24-.18,.62-.6,1.01-1.19,1.24Z"/>
      <path class="cls-10" d="M86.25,68.09c.01,.07,.03,.14,.04,.22-.07,.31-.27,.52-.55,.66,0-.39-.02-.79,.5-.87Z"/>
      <path class="cls-16" d="M67.49,27.45c-.02,.48-.32,.76-.71,.97,0-.5,.31-.76,.71-.97Z"/>
      <path class="cls-11" d="M108.3,65.09c-.36,.05-.68,.02-.76-.43,.35-.03,.72-.08,.76,.43Z"/>
      <path class="cls-21" d="M87,64.67c-.11,.38-.46,.4-.76,.5,.07-.44,.34-.59,.76-.5Z"/>
      <path d="M71.54,49.05c0,8.22-.01,16.33,.02,24.45,0,.85-.27,1.11-1.09,1.11-7.67-.02-15.35-.01-23.02-.02-.26,0-.59,.14-.75-.19-.2-.4,.22-.59,.4-.77,5.18-5.33,10.38-10.64,15.58-15.96,2.51-2.57,5.03-5.13,7.54-7.7,.35-.36,.66-.78,1.33-.92Z"/>
      <path class="cls-20" d="M106.42,67.59c-.39-.24-1.17,.36-1.23-.42-.05-.67,.54-1.16,1.23-1.19,.64-.04,1.15,.34,1.17,1.04,.02,.92-.75,.37-1.16,.58Z"/>
      <path class="cls-17" d="M89.77,69.89c-.12,.1-.25,.19-.36,.3-.46,.47-.99,.4-1.52,.19-.35-.14-.35-.5-.34-.81,.03-.66,.47-.85,1.04-.9,1.34-.31,1.57-.07,1.18,1.23Z"/>
      <path class="cls-15" d="M89.77,69.89c.26-1.04-.19-1.39-1.18-1.23,.37-.74,1.13-.59,1.48-.28,.48,.44,.23,1.08-.3,1.51Z"/>
      <path class="cls-2" d="M77.81,68.22c0-.67,.03-1.35,0-2.02-.03-.68,.05-1.13,.93-1.1,.93,.03,1.12,.99,1.01,1.27-.52,1.33-.16,2.66-.25,3.98-.04,.64-.11,1.04-.9,1.03-.77-.01-.81-.44-.79-1,.02-.71,0-1.43,0-2.14Z"/>
    </g>
  </g>
</svg>