<svg width="115" height="115" viewBox="0 0 115 115" fill="none" xmlns="http://www.w3.org/2000/svg">
<g clip-path="url(#clip0_1331_1436)">
<path d="M57.8104 0C66.3589 0.254331 75.0775 0.466274 83.796 0.84777C89.6226 1.1021 95.1514 2.62809 100.17 5.72245C107.442 10.2156 111.738 16.7858 113.609 25.0092C114.672 29.672 114.885 34.4195 114.928 39.167C115.013 51.502 115.013 63.8371 114.928 76.1721C114.928 80.8349 114.672 85.54 113.609 90.1604C111.568 98.9772 106.847 105.844 98.8515 110.253C94.2583 112.796 89.2398 113.983 84.0087 114.364C74.4395 115 64.8703 115.042 55.2587 114.958C48.7091 114.915 42.117 114.83 35.5675 114.619C30.0386 114.449 24.5523 113.813 19.3637 111.651C11.6233 108.43 6.26457 102.877 3.15991 95.1198C1.16102 90.118 0.693197 84.9042 0.438019 79.648C-0.114865 68.2455 0.0127235 56.8854 0.0127235 45.5676C0.0127235 40.481 0.267901 35.3944 0.693197 30.3078C1.24608 23.6104 3.33003 17.3793 7.62552 12.0807C11.921 6.82455 17.4073 3.47586 23.9569 1.94987C26.7213 1.31404 29.5708 0.84777 32.3777 0.762993C40.7986 0.381497 49.2195 0.254331 57.8104 0ZM10.0922 57.3516C10.0922 57.3516 10.2624 57.3516 10.3474 57.3516C10.3474 63.1589 10.2624 68.9237 10.3474 74.7309C10.4325 78.334 10.5601 81.937 11.0279 85.4552C12.1762 94.272 16.7694 100.503 25.5305 103.174C27.8271 103.894 30.2938 104.318 32.718 104.403C39.2675 104.7 45.8596 104.869 52.4092 104.912C60.4473 104.954 68.4428 104.869 76.4809 104.784C80.3936 104.742 84.2638 104.615 88.0915 103.725C93.8755 102.411 98.4687 99.401 101.446 94.2296C103.147 91.2625 104.083 88.0409 104.338 84.6498C104.636 80.6653 104.933 76.6808 104.933 72.6963C104.976 61.1666 104.976 49.6369 104.848 38.1073C104.848 34.7162 104.465 31.2827 103.87 27.934C102.764 21.6605 99.4469 16.7858 93.7479 13.6915C90.0904 11.6992 86.1351 10.8938 82.0098 10.7243C75.928 10.5123 69.8038 10.3004 63.722 10.258C55.4288 10.2156 47.093 10.3004 38.7997 10.4276C35.0146 10.47 31.2294 10.6395 27.5294 11.4449C19.2786 13.2252 13.8774 18.0151 11.6233 26.1961C10.8152 29.1633 10.5175 32.2577 10.4325 35.3096C10.2624 42.6428 10.1773 50.0184 10.0497 57.394L10.0922 57.3516Z" fill="#1C1C1C"/>
<path d="M57.6259 86.8963C41.3371 87.0658 28.0253 73.6287 28.1955 57.3091C28.3656 41.2015 41.5072 28.2306 57.711 28.3154C73.9998 28.4001 87.0989 41.5406 87.0564 57.6906C87.0139 74.3493 73.2768 87.1506 57.6259 86.8963ZM76.9769 57.6906C76.9769 46.9663 68.2158 38.2343 57.4558 38.2343C46.9935 38.2343 38.2324 47.0087 38.2324 57.4363C38.2324 68.3301 46.8234 76.8926 57.8386 76.8926C68.3009 76.8926 76.9344 68.2029 76.9344 57.6906H76.9769Z" fill="#1C1C1C"/>
<path d="M95.0969 26.8317C95.1394 30.6043 92.2049 33.6139 88.4623 33.6562C84.7196 33.6562 81.7426 30.8162 81.7 27.1708C81.615 23.3982 84.5495 20.3039 88.2496 20.2615C92.0773 20.2615 95.0543 23.1015 95.0969 26.8317Z" fill="#1C1C1C"/>
</g>
<defs>
<clipPath id="clip0_1331_1436">
<rect width="115" height="115" fill="white"/>
</clipPath>
</defs>
</svg>
